<?xml version="1.0" encoding="iso-8859-1"?>
<!-- Generator: Adobe Illustrator 19.0.0, SVG Export Plug-In . SVG Version: 6.00 Build 0)  -->
<svg xmlns="http://www.w3.org/2000/svg" xmlns:xlink="http://www.w3.org/1999/xlink" version="1.1" id="Layer_1" x="0px" y="0px" viewBox="0 0 512.001 512.001" style="enable-background:new 0 0 512.001 512.001;" xml:space="preserve" width="512px" height="512px">
<g>
	<g>
		<path d="M398.36,405.439l0.252-214.944l6.683-2.259c10.638-3.597,16.347-15.136,12.75-25.775    c-2.88-8.519-10.856-13.86-19.384-13.81l0.14-119.932c0.007-5.626-4.549-10.192-10.174-10.198c-0.004,0-0.008,0-0.012,0    c-5.621,0-10.18,4.553-10.186,10.174l-0.147,125.745l-47.451,16.042c-3.961-11.176-8.656-24.472-11.037-31.399    c-7.593-22.092-19.322-35.413-34.955-39.775c-8.898,25.107-12.092,34.122-17.788,50.194c6.076,49.672,1.667,21.069,20.618,131.353    c1.051,6.116-3.661,11.674-9.828,11.674c-20.094,0-60.466,0-80.571,0c-6.144,0-10.878-5.563-9.828-11.674    c18.943-110.247,14.578-81.979,20.475-130.183c-13.539-38.205-12.103-34.154-18.15-51.217    c-15.379,4.506-26.94,17.774-34.449,39.628c-14.621,42.544-47.821,133.379-48.156,134.291c-3.442,9.414,0.523,19.71,8.91,24.56    c0,10.507,0,18.242,0,28.54c-20.041,0-31.815,14.234-31.815,29.782v39.083c0,4.278,3.467,7.745,7.745,7.745h68.511    c4.278,0,7.745-3.467,7.745-7.745v-39.083c0-14.966-11.185-29.782-31.815-29.782c0-16.821,0-17.559,0-28.522    c3.98-2.302,7.208-5.957,8.91-10.613c0.283-0.775,24.124-66.121,40.409-112.222c-1.054,8.619-26.953,141.581-26.953,141.581    c9.59,4.95,17.156,13.279,21.116,23.409c1.159,0,2.346,0,3.561,0v147.492c0,13.475,10.924,24.399,24.399,24.399    s24.399-10.924,24.399-24.399V340.108c3.508,0,7.027,0,10.535,0v147.492c0,13.475,10.924,24.399,24.399,24.399    c13.475,0,24.399-10.924,24.399-24.399V340.108c5.883,0,11.137,0,15.516,0c7.09,0,12.442-6.47,11.089-13.456    c-2.209-11.401-27.789-142.489-28.895-151.534c4.763,13.473,9.562,26.947,9.889,27.865c3.725,10.454,15.144,15.992,25.667,12.438    l53.344-18.035l-0.243,208.03c-16.946,4.476-29.451,19.895-29.472,38.252l-0.003,3.018l79.228,0.093l0.003-3.018    C427.764,425.403,415.296,409.955,398.36,405.439z" fill="#76838c"/>
	</g>
</g>
<g>
	<g>
		<path d="M348.492,462.531l-0.041,35.464c-0.009,7.71,17.72,13.98,39.598,14.006c21.878,0.026,39.621-6.204,39.63-13.913    l0.041-35.464L348.492,462.531z" fill="#76838c"/>
	</g>
</g>
<g>
	<g>
		<circle cx="237.551" cy="42.14" r="42.14" fill="#76838c"/>
	</g>
</g>
<g>
	<g>
		<path d="M205.958,97.714c3.628,10.237,14.014,39.543,17.648,49.802c10.642,0,17.818,0,27.336,0    c3.921-11.063,14.241-40.186,17.65-49.802H205.958z" fill="#76838c"/>
	</g>
</g>
<g>
</g>
<g>
</g>
<g>
</g>
<g>
</g>
<g>
</g>
<g>
</g>
<g>
</g>
<g>
</g>
<g>
</g>
<g>
</g>
<g>
</g>
<g>
</g>
<g>
</g>
<g>
</g>
<g>
</g>
</svg>
